<?xml version="1.0" standalone="no"?>
<!DOCTYPE svg PUBLIC "-//W3C//DTD SVG 20010904//EN"
 "http://www.w3.org/TR/2001/REC-SVG-20010904/DTD/svg10.dtd">
<svg version="1.0" xmlns="http://www.w3.org/2000/svg" 
 width="480.000000pt" height="147.000000pt" viewBox="0 0 480.000000 147.000000"
 preserveAspectRatio="xMidYMid meet">

<g transform="translate(0.000000,147.000000) scale(0.100000,-0.100000)"
fill="#003049" stroke="none">
<path d="M2509 1427 c-84 -32 -140 -85 -177 -169 -6 -15 -34 -146 -62 -290
-55 -280 -58 -332 -24 -404 61 -128 236 -193 403 -149 70 18 141 51 181 83
l25 20 44 -26 c77 -45 186 -28 245 36 18 21 18 21 54 1 58 -30 145 -26 220 11
73 37 116 83 153 166 16 34 35 64 43 67 23 9 38 76 25 112 -8 22 -8 45 1 88
10 50 14 57 36 57 33 0 67 -36 60 -63 -21 -79 -38 -198 -32 -229 29 -156 221
-190 343 -61 l32 34 41 -21 c83 -42 219 -42 334 0 60 23 135 77 181 131 36 44
82 142 91 195 5 35 3 45 -16 64 -18 18 -30 21 -57 17 -48 -8 -59 -19 -82 -89
-42 -125 -145 -203 -268 -203 -54 0 -66 4 -88 25 -20 21 -24 32 -19 56 l6 31
71 -1 c55 0 81 4 112 21 174 92 192 312 31 395 -90 47 -233 16 -301 -64 -41
-48 -53 -83 -86 -249 -30 -154 -61 -235 -100 -263 -23 -15 -44 -12 -52 8 -3 7
6 64 19 127 13 63 23 130 24 149 0 73 -55 125 -167 156 -40 11 -63 23 -63 32
0 27 -34 72 -68 88 -44 20 -85 11 -118 -29 -23 -27 -26 -38 -22 -89 3 -34 11
-65 21 -75 15 -17 14 -29 -18 -176 -37 -168 -56 -216 -102 -258 -37 -34 -57
-40 -79 -24 -17 12 -16 23 24 236 23 123 42 234 42 246 0 12 -14 33 -32 48
-26 22 -39 26 -67 21 -19 -3 -46 -16 -59 -29 -22 -22 -28 -23 -70 -14 -70 15
-144 -6 -198 -55 -51 -47 -55 -59 -90 -248 -17 -96 -35 -159 -50 -187 -26 -45
-87 -92 -143 -111 -43 -15 -136 -15 -164 -1 -38 20 -76 61 -82 90 -7 31 77
470 102 532 17 41 62 72 92 62 27 -8 40 -46 34 -97 -5 -40 -2 -48 23 -72 35
-32 72 -33 109 -4 37 29 55 76 55 146 0 75 -30 137 -87 176 -36 25 -54 30
-120 33 -49 2 -91 -2 -114 -10z m1823 -234 c28 -25 24 -77 -8 -102 -27 -21
-88 -29 -99 -12 -9 15 12 91 31 112 21 23 51 24 76 2z m-1188 -196 l20 -27
-22 -137 c-12 -75 -28 -147 -35 -161 -16 -34 -59 -64 -79 -57 -25 10 -28 30
-11 80 8 25 13 62 10 83 -5 42 16 181 33 211 11 22 40 42 54 38 6 -2 19 -15
30 -30z"/>
<path d="M1106 1209 c-33 -26 -41 -56 -116 -432 -67 -334 -77 -373 -116 -424
-50 -66 -136 -82 -150 -28 -3 14 24 171 65 372 39 191 71 366 71 389 0 73 -80
113 -144 70 -36 -23 -50 -73 -121 -423 -66 -332 -78 -374 -121 -430 -48 -64
-127 -81 -139 -30 -3 12 26 177 65 365 38 189 70 363 70 387 0 36 -5 48 -32
70 -26 22 -39 26 -66 21 -42 -6 -78 -38 -91 -80 -6 -17 -42 -193 -81 -391 -78
-391 -80 -419 -36 -486 39 -59 88 -83 166 -83 75 1 133 24 199 80 l41 36 33
-21 c118 -72 297 -32 415 93 29 31 64 80 77 108 23 52 165 719 165 777 0 68
-96 106 -154 60z"/>
<path d="M1472 937 c-48 -15 -127 -90 -146 -137 -26 -65 -68 -300 -63 -348 8
-69 53 -132 122 -167 52 -27 68 -30 144 -29 206 1 382 126 436 308 27 91 13
130 -48 130 -48 0 -70 -22 -97 -97 -28 -79 -103 -156 -175 -180 -114 -39 -205
-7 -205 73 l0 38 37 -10 c21 -6 59 -8 85 -5 226 27 300 327 103 418 -45 21
-139 24 -193 6z m104 -135 c21 -13 34 -52 28 -77 -9 -36 -41 -55 -91 -55 -48
0 -45 -7 -28 75 10 48 59 79 91 57z"/>
</g>
</svg>
