<svg id="Layer_5" fill="#ffffff" enable-background="new 0 0 64 64" height="512" viewBox="0 0 64 64" width="512" xmlns="http://www.w3.org/2000/svg"><path d="m35.875 36.093.258 1.982c.386-.05.78-.075 1.17-.075h.697v-2h-.697c-.477 0-.957.031-1.428.093z"/><path d="m30.498 39.405-.466-.652-1.555 1.392 1.338 1.486 1.467-1.321v-.001l.029-.025z"/><path d="m31.739 37.508 1.011 1.727c.517-.303 1.066-.555 1.633-.749l-.648-1.893c-.693.238-1.365.546-1.996.915z"/><path d="m16.717 39.69c-.2.181-.407.35-.62.51l1.2 1.6c.261-.195.514-.403.758-.623l1.613-1.452-1.338-1.486z"/><path d="m10.697 42h-2.197c-1.93 0-3.5 1.57-3.5 3.5 0 1.963 1.575 3.5 3.586 3.5.12 0 .239.003.357.01l.113-1.996c-.155-.009-.312-.014-.47-.014-.889 0-1.586-.659-1.586-1.5 0-.827.673-1.5 1.5-1.5h2.197c1.654 0 3.312-.381 4.797-1.101l-.872-1.799c-1.214.588-2.572.9-3.925.9z"/><path d="m52.367 15h2.973v2.001h-2.973z" transform="matrix(.74 -.673 .673 .74 3.244 40.39)"/><path d="m46 28.992 2 .016c.029-3.847 1.622-7.599 4.37-10.294l-1.4-1.428c-3.125 3.065-4.936 7.331-4.97 11.706z"/><path d="m51.062.587-9.42 8.635c-1.954 1.792-4.491 2.778-7.142 2.778-3.307 0-6.229 2.204-7.176 5.324-3.077.935-5.324 3.797-5.324 7.176v2.828c0 1.415-.604 2.769-1.655 3.716l-6.302 5.673c-.92.827-2.108 1.283-3.345 1.283h-2.198c-4.136 0-7.5 3.364-7.5 7.5s3.364 7.5 7.586 7.5c.645 0 1.251.251 1.707.707s.707 1.063.707 1.793c0 4.136 3.364 7.5 7.5 7.5s7.5-3.364 7.5-7.5v-2.828c0-1.415.604-2.769 1.655-3.716l6.302-5.673c.92-.827 2.108-1.283 3.345-1.283h2.198c3.379 0 6.24-2.246 7.176-5.324 3.119-.947 5.324-3.869 5.324-7.176v-.383c0-2.971 1.261-5.821 3.459-7.819l7.956-7.233zm-11.562 39.413h-2.198c-1.732 0-3.395.638-4.683 1.797l-6.302 5.673c-1.472 1.325-2.317 3.221-2.317 5.202v2.828c0 3.032-2.467 5.5-5.5 5.5s-5.5-2.468-5.5-5.586c0-1.179-.459-2.287-1.292-3.121s-1.942-1.293-3.208-1.293c-3.033 0-5.5-2.468-5.5-5.5s2.467-5.5 5.5-5.5h2.198c1.732 0 3.395-.638 4.683-1.797l6.302-5.673c1.472-1.325 2.317-3.221 2.317-5.202v-2.828c0-3.032 2.467-5.5 5.5-5.5s5.5 2.468 5.5 5.586c0 1.179.459 2.287 1.292 3.121s1.942 1.293 3.208 1.293c3.033 0 5.5 2.468 5.5 5.5s-2.467 5.5-5.5 5.5zm14.614-20.183c-2.614 2.377-4.114 5.767-4.114 9.3v.383c0 2.09-1.211 3.954-3.006 4.878-.066-4.079-3.4-7.378-7.58-7.378-.645 0-1.251-.251-1.707-.707s-.707-1.063-.707-1.793c0-4.094-3.299-7.427-7.378-7.494.925-1.795 2.788-3.006 4.878-3.006 3.153 0 6.169-1.173 8.493-3.304l7.945-7.283 9.646 10.522z"/></svg>