<?xml version="1.0" encoding="iso-8859-1"?>
<!-- Generator: Adobe Illustrator 19.0.0, SVG Export Plug-In . SVG Version: 6.00 Build 0)  -->
<svg fill="#ffffff" version="1.1" id="Capa_1" xmlns="http://www.w3.org/2000/svg" xmlns:xlink="http://www.w3.org/1999/xlink" x="0px" y="0px"
	 viewBox="0 0 392.676 392.676" style="enable-background:new 0 0 392.676 392.676;" xml:space="preserve">
<g>
	<g>
		<path d="M139.61,38.525l-22.781-12.459L104.363,3.279c-2.386-4.372-9.588-4.372-11.974,0L79.924,26.067L57.143,38.525
			c-2.195,1.198-3.553,3.492-3.553,5.99s1.359,4.792,3.553,5.99l22.781,12.462L92.39,85.752c1.195,2.191,3.495,3.55,5.987,3.55
			c2.492,0,4.792-1.358,5.987-3.55l12.466-22.784l22.781-12.462c2.195-1.198,3.553-3.492,3.553-5.99S141.804,39.724,139.61,38.525z
			 M108.524,51.95c-1.147,0.628-2.086,1.57-2.714,2.714l-7.434,13.585l-7.434-13.585c-0.628-1.143-1.567-2.086-2.714-2.714
			l-13.585-7.434l13.585-7.431c1.147-0.628,2.086-1.57,2.714-2.714l7.434-13.589l7.434,13.589c0.628,1.143,1.567,2.086,2.714,2.714
			l13.585,7.431L108.524,51.95z"/>
	</g>
</g>
<g>
	<g>
		<path d="M128.957,354.051l-14.927-8.165l-8.168-14.93c-2.386-4.379-9.588-4.379-11.974,0l-8.168,14.93l-14.927,8.165
			c-2.195,1.198-3.553,3.492-3.553,5.99s1.359,4.792,3.553,5.99l14.927,8.165l8.168,14.93c1.195,2.191,3.495,3.55,5.987,3.55
			c2.495,0,4.792-1.358,5.987-3.55l8.168-14.93l14.927-8.165c2.195-1.198,3.553-3.492,3.553-5.99S131.151,355.249,128.957,354.051z
			 M105.732,363.174c-1.147,0.628-2.086,1.57-2.714,2.714l-3.14,5.738l-3.14-5.738c-0.628-1.143-1.567-2.086-2.714-2.714
			l-5.728-3.133l5.728-3.133c1.147-0.628,2.086-1.57,2.714-2.714l3.14-5.738l3.14,5.738c0.628,1.143,1.567,2.086,2.714,2.714
			l5.728,3.133L105.732,363.174z"/>
	</g>
</g>
<g>
	<g>
		<path d="M239.863,81.653c-8.486,0-16.261,3.68-23.774,7.24c-6.434,3.048-12.506,5.926-17.92,5.926
			c-5.414,0-11.493-2.877-17.927-5.926c-7.513-3.56-15.281-7.24-23.767-7.24c-31.928,0-55.101,34.246-55.101,81.432
			c0,26.406,15.196,177.981,55.101,177.981c13.452,0,17.712-21.292,24.16-53.514c2.98-14.899,10.892-54.473,17.507-54.501
			c9.482,0.031,16.108,37.639,19.668,57.842c5.321,30.211,8.834,50.169,22.054,50.169c39.905,0,55.098-151.576,55.101-177.978
			C294.964,115.899,271.791,81.653,239.863,81.653z M240.842,327.307c-3.56-4.574-7.168-25.037-9.588-38.782
			c-5.987-33.949-12.165-69.059-33.113-69.13c-17.814,0.078-23.873,30.385-30.894,65.475c-3.041,15.196-7.574,37.867-11.66,42.458
			c-18.473-3.369-40.561-110.79-40.561-164.246c0-38.639,17.821-67.779,41.448-67.779c5.414,0,11.493,2.881,17.923,5.926
			c7.513,3.56,15.281,7.24,23.767,7.24c8.479,0,16.254-3.68,23.767-7.24c6.434-3.045,12.513-5.926,17.927-5.926
			c23.627,0,41.448,29.14,41.448,67.779C281.307,216.445,259.301,323.583,240.842,327.307z"/>
	</g>
</g>
<g>
	<g>
		<path d="M258.663,135.597l-14.927-8.165l-8.168-14.93c-2.386-4.379-9.588-4.379-11.974,0l-8.168,14.93l-14.927,8.165
			c-2.195,1.198-3.553,3.492-3.553,5.99c0,2.499,1.359,4.792,3.553,5.99l14.927,8.165l8.168,14.93
			c1.195,2.191,3.495,3.55,5.987,3.55c2.495,0,4.792-1.359,5.987-3.55l8.168-14.93l14.927-8.165c2.195-1.198,3.553-3.492,3.553-5.99
			C262.217,139.089,260.858,136.795,258.663,135.597z M235.439,144.721c-1.147,0.628-2.086,1.57-2.714,2.714l-3.14,5.738
			l-3.14-5.738c-0.628-1.143-1.567-2.086-2.714-2.714l-5.728-3.133l5.728-3.133c1.147-0.628,2.086-1.57,2.714-2.714l3.14-5.738
			l3.14,5.738c0.628,1.143,1.567,2.086,2.714,2.714l5.728,3.133L235.439,144.721z"/>
	</g>
</g>
<g>
	<g>
		<path d="M360.671,124.562c-4.291-7.427-15.998-15.159-67.919,3.393c-3.553,1.27-5.407,5.178-4.134,8.728
			c1.26,3.546,5.181,5.393,8.721,4.134c37.086-13.24,49.94-11.162,51.487-9.469c3.028,9.274-42.404,56.071-140.039,112.439
			c-97.604,56.358-160.86,72.329-167.346,65.147c-0.874-2.686,6.386-20.548,57.88-58.938c3.021-2.253,3.645-6.53,1.393-9.554
			c-2.26-3.021-6.533-3.656-9.554-1.393c-49.094,36.601-69.806,62.392-61.566,76.663c3.113,5.39,9.772,7.711,18.92,7.711
			c38.475-0.007,120.842-41.103,167.096-67.809c42.984-24.822,81.657-51.296,108.892-74.547
			C365.804,145.806,364.924,131.931,360.671,124.562z"/>
	</g>
</g>
<g>
	<g>
		<path d="M303.613,237.867c-3.028-2.27-7.301-1.662-9.561,1.352c-2.266,3.014-1.666,7.294,1.348,9.561
			c49.708,37.393,56.685,54.801,55.893,57.32c-6.519,7.26-69.779-8.694-167.4-65.058c-97.628-56.364-143.06-103.161-140.093-112.35
			c1.679-1.843,15.22-3.919,54.286,10.37c3.526,1.294,7.458-0.522,8.759-4.065c1.294-3.54-0.526-7.458-4.065-8.752
			c-54.286-19.852-66.379-12.025-70.772-4.42c-4.253,7.369-5.134,21.238,36.168,56.501c27.232,23.252,65.905,49.729,108.892,74.547
			c46.268,26.709,128.631,67.813,167.1,67.806c9.141,0,15.807-2.321,18.92-7.707C371.194,298.925,351.182,273.656,303.613,237.867z"
			/>
	</g>
</g>
<g>
</g>
<g>
</g>
<g>
</g>
<g>
</g>
<g>
</g>
<g>
</g>
<g>
</g>
<g>
</g>
<g>
</g>
<g>
</g>
<g>
</g>
<g>
</g>
<g>
</g>
<g>
</g>
<g>
</g>
</svg>
