<?xml version="1.0" encoding="iso-8859-1"?>
<!-- Generator: Adobe Illustrator 19.0.0, SVG Export Plug-In . SVG Version: 6.00 Build 0)  -->
<svg fill="#ffffff" version="1.1" id="Capa_1" xmlns="http://www.w3.org/2000/svg" xmlns:xlink="http://www.w3.org/1999/xlink" x="0px" y="0px"
	 viewBox="0 0 496 496" style="enable-background:new 0 0 496 496;" xml:space="preserve">
<g>
	<g>
		<g>
			<path d="M474.28,153.584l-2.728-4.544c-14.912-24.832-41.104-41.456-69.944-44.424C398.08,104.2,394.936,104,392,104
				c-44.112,0-80,35.888-80,80c0,18.24,6.144,35.08,16.456,48.552c-5.712,7.392-9.968,15.664-12.744,24.424l-25.936,25.936
				c-3.648,3.648-6.864,7.6-9.776,11.728V264h-16v72h0.488c-0.312,3.016-0.488,6.064-0.488,9.144V496h16V345.144
				c0-19.232,7.488-37.312,21.088-50.912l11.048-11.04c0.24,7.528,1.488,14.808,3.704,21.664l-3.432,3.432
				C301.824,318.856,296,332.92,296,347.88V496h16V347.88c0-10.28,3.936-19.912,10.952-27.352C336.84,344.096,362.552,360,392,360
				c2.936,0,6.08-0.2,9.488-0.6c28.96-2.984,55.152-19.6,70.064-44.44l2.728-4.544C488.488,286.728,496,259.616,496,232
				C496,204.376,488.488,177.256,474.28,153.584z M460.56,302.176l-2.728,4.544c-12.328,20.536-34.008,34.28-58.104,36.768
				C397.192,343.792,394.616,344,392,344c-35.288,0-64-28.424-64-63.352c0-13.064,4.072-25.656,11.592-36.248
				C353.64,256.6,371.968,264,392,264v-16c-35.288,0-64-28.712-64-64c0-37.904,33.416-67.992,71.848-63.48
				c23.976,2.472,45.656,16.208,57.984,36.752l2.728,4.544C473.28,183.008,480,207.272,480,232
				C480,256.72,473.28,280.984,460.56,302.176z"/>
			<path d="M446.84,170.064l-2.736-4.568c-9.744-16.232-26.896-27.104-45.8-29.048c-2.44-0.28-4.344-0.448-6.304-0.448v16
				c1.384,0,2.744,0.136,4.568,0.352c14.008,1.448,26.656,9.44,33.824,21.368l2.736,4.568c4.496,7.504,8.056,15.568,10.552,24
				l15.344-4.56C456.136,188.016,452.04,178.704,446.84,170.064z"/>
			<path d="M462.784,214.864l-15.848,2.264C447.64,222.04,448,227.04,448,232h16C464,226.28,463.584,220.52,462.784,214.864z"/>
			<path d="M136,184c0,8.904-3.776,17.48-10.36,23.536l10.832,11.784C146.336,210.24,152,197.368,152,184c0-26.472-21.528-48-48-48
				v16C121.648,152,136,166.352,136,184z"/>
			<path d="M116.792,213.328C112.752,215.104,108.448,216,104,216v16c6.672,0,13.136-1.352,19.208-4.016L116.792,213.328z"/>
			<rect x="264" width="16" height="248"/>
			<path d="M216,294.64c-2.912-4.128-6.128-8.08-9.776-11.728l-25.928-25.936c-2.776-8.76-7.04-17.04-12.744-24.432
				C177.856,219.08,184,202.24,184,184c0-44.112-35.888-80-80-80c-2.936,0-6.08,0.2-9.496,0.6
				c-28.96,2.984-55.152,19.6-70.064,44.44l-2.728,4.544C7.504,177.272,0,204.384,0,232c0,27.608,7.504,54.72,21.72,78.416
				l2.728,4.544c14.912,24.84,41.104,41.456,69.944,44.424C97.92,359.8,101.064,360,104,360c29.448,0,55.16-15.904,69.048-39.472
				c7.016,7.448,10.952,17.08,10.952,27.352V496h16V347.88c0-14.96-5.832-29.024-16.408-39.6l-3.432-3.432
				c2.224-6.864,3.464-14.136,3.704-21.664l11.048,11.04c13.592,13.6,21.088,31.68,21.088,50.912V496h16V345.144
				c0-3.072-0.176-6.12-0.488-9.144H232V0h-16V294.64z M96.152,343.48c-23.976-2.472-45.656-16.208-57.984-36.752l-2.728-4.552
				C22.72,280.976,16,256.712,16,232c0-24.72,6.72-48.984,19.44-70.176l2.728-4.544c12.328-20.536,34.008-34.28,58.104-36.768
				C98.808,120.208,101.384,120,104,120c35.288,0,64,28.712,64,64c0,35.288-28.712,64-64,64v16c20.032,0,38.36-7.4,52.416-19.608
				C163.928,255,168,267.592,168,280.648C168,318.168,134.656,348.024,96.152,343.48z"/>
		</g>
	</g>
</g>
<g>
</g>
<g>
</g>
<g>
</g>
<g>
</g>
<g>
</g>
<g>
</g>
<g>
</g>
<g>
</g>
<g>
</g>
<g>
</g>
<g>
</g>
<g>
</g>
<g>
</g>
<g>
</g>
<g>
</g>
</svg>
