<?xml version="1.0" encoding="iso-8859-1"?>
<!-- Generator: Adobe Illustrator 19.0.0, SVG Export Plug-In . SVG Version: 6.00 Build 0)  -->
<svg fill="#ffffff" version="1.1" id="Capa_1" xmlns="http://www.w3.org/2000/svg" xmlns:xlink="http://www.w3.org/1999/xlink" x="0px" y="0px"
	 viewBox="0 0 512 512" style="enable-background:new 0 0 512 512;" xml:space="preserve">
<g>
	<g>
		<g>
			<path d="M482.111,324.267c0.067-7.86,0.904-15.695,2.5-23.392c10.253-53.939,15.132-108.761,14.566-163.662V34.133
				C499.158,15.29,483.888,0.02,465.045,0H67.361c-10.98-0.006-21.294,5.263-27.725,14.163C24.311,35.496,12.778,66.867,12.778,76.8
				c0,8.308,0,25.6,25.6,25.6c12.283,0,17.067,4.783,17.067,17.067c-1.533,7.013-4.763,13.543-9.408,19.017
				c-9.426,11.601-15.077,25.81-16.192,40.717c0,22.65,8.617,34.133,25.6,34.133c23.642,0,34.133-30.916,34.133-42.667
				c0-4.221,0-17.067,51.2-17.067c105.867,0,139.392,47.154,163.875,81.583c14.45,20.329,26.933,37.883,49.458,37.883
				c12.725,0,25.6-11.725,25.6-34.133c-0.564-12.306-5.079-24.103-12.875-33.642c-7.986-9.799-12.465-21.987-12.725-34.625
				c-0.696-9.445,2.834-18.711,9.637-25.299c6.803-6.588,16.179-9.817,25.596-8.817c18.504,0.719,33.111,15.969,33.033,34.487
				c0,6.442,0.125,11.454,0.225,15.746c0.252,6.005,0.176,12.02-0.225,18.017c-0.306,59.525-5.173,118.939-14.558,177.721
				c-5.457,34.075-9.041,68.424-10.733,102.892c-0.245,6.955,2.343,13.712,7.172,18.724c4.829,5.012,11.485,7.849,18.444,7.863
				h48.792c7.292,0.007,14.241-3.099,19.098-8.538s7.163-12.692,6.335-19.937C492.478,444.317,482.111,350.308,482.111,324.267z
				 M477.856,492.094c-1.62,1.809-3.934,2.842-6.362,2.839h-48.792c-2.312,0.005-4.525-0.936-6.125-2.604
				c-1.643-1.694-2.525-3.984-2.442-6.342c1.687-33.858,5.22-67.598,10.583-101.071c9.479-59.346,14.394-119.332,14.7-179.429
				c0.432-6.36,0.513-12.739,0.242-19.108c-0.1-4.183-0.217-9.071-0.217-15.35c0.023-27.77-21.964-50.564-49.717-51.541
				c-0.508-0.013-1.017-0.021-1.525-0.021c-13.774-0.685-27.194,4.491-36.942,14.247c-9.748,9.756-14.912,23.18-14.216,36.953
				c0.251,16.026,5.738,31.53,15.625,44.146c5.799,6.779,9.292,15.226,9.975,24.121c0,11.083-4.4,17.067-8.533,17.067
				c-13.075,0-21.608-11.096-35.55-30.708c-25.133-35.346-63.108-88.758-177.783-88.758c-31.783,0-68.267,3.879-68.267,34.133
				c0,6.188-7.083,25.6-17.067,25.6c-5.9,0-8.533-2.462-8.533-17.067c1.239-11.477,5.86-22.328,13.275-31.175
				c6.855-8.083,11.146-18.026,12.325-28.558c0.974-9.317-2.308-18.577-8.932-25.201s-15.884-9.906-25.201-8.932
				c-8.533,0-8.533-0.158-8.533-8.525c4.469-18.907,12.498-36.79,23.658-52.692c3.219-4.439,8.375-7.062,13.858-7.05h397.683
				c9.421,0.011,17.056,7.646,17.067,17.067v103.079c0.563,53.776-4.205,107.476-14.234,160.313
				c-1.819,8.799-2.768,17.756-2.833,26.742c0,25.946,9.35,112.125,14.933,161.192C480.248,487.871,479.476,490.285,477.856,492.094
				z"/>
			<path d="M346.878,354.646c-11.479-5.726-18.63-17.554-18.367-30.379c0-40.675-58.058-85.333-110.933-85.333
				c-4.875,0-119.467,0.388-119.467,34.133c0,7.8,7.091,14.892,15.3,23.1c3.421,3.257,6.62,6.74,9.574,10.425
				c-5.428,0.563-10.887,0.766-16.341,0.608c-11.083,0-17.067-4.396-17.067-8.533c0-12.721-11.725-25.6-34.133-25.6
				c-8.308,0-25.6,0-25.6,25.6c0.1,8.948,4.136,17.398,11.034,23.1c4.183,4.184,6.033,6.238,6.033,11.034
				c-0.612,11.349-3.71,22.426-9.075,32.446c-4.574,8.424-7.299,17.727-7.992,27.287c0,45.892,29.217,51.2,51.2,51.2
				c13.69,0.364,27.214,3.104,39.967,8.096c14.488,5.598,29.839,8.633,45.367,8.971c33.55,0,45.458,17.683,49.542,32.521
				c3.082,11.046,13.148,18.684,24.617,18.679h87.975c14.132-0.015,25.585-11.468,25.6-25.6v-59.733
				c0.448-15.035,2.263-29.998,5.425-44.704C361.67,371.077,356.562,360.055,346.878,354.646z M342.803,378.608
				c-3.384,15.81-5.312,31.897-5.758,48.058V486.4c-0.005,4.711-3.822,8.529-8.533,8.533h-87.975
				c-3.79,0.016-7.128-2.492-8.166-6.138c-4.625-16.829-19.35-45.063-65.992-45.063c-13.69-0.364-27.214-3.104-39.967-8.096
				c-14.488-5.598-29.839-8.633-45.367-8.971c-21.617,0-34.133-5.583-34.133-34.133c0.828-7.121,3.032-14.013,6.492-20.292
				c6.418-12.196,10.031-25.671,10.575-39.442c-0.1-8.948-4.136-17.398-11.034-23.1c-4.183-4.184-6.033-6.238-6.033-11.034
				c0-8.533,0.158-8.533,8.533-8.533c11.083,0,17.067,4.396,17.067,8.533c0,12.721,11.725,25.6,34.133,25.6
				c17.55,0,34.133,0,34.133-17.067c0-7.8-7.091-14.892-15.3-23.1c-3.607-3.383-6.931-7.055-9.941-10.979
				C122.395,265.233,169.195,256,217.578,256c46.566,0,93.867,39.717,93.867,68.267c-0.205,18.951,10.226,36.419,27.008,45.225
				C341.721,371.27,343.476,374.949,342.803,378.608z"/>
		</g>
	</g>
</g>
<g>
</g>
<g>
</g>
<g>
</g>
<g>
</g>
<g>
</g>
<g>
</g>
<g>
</g>
<g>
</g>
<g>
</g>
<g>
</g>
<g>
</g>
<g>
</g>
<g>
</g>
<g>
</g>
<g>
</g>
</svg>
